<?xml version="1.0" standalone="no"?>
<!DOCTYPE svg PUBLIC "-//W3C//DTD SVG 20010904//EN"
 "http://www.w3.org/TR/2001/REC-SVG-20010904/DTD/svg10.dtd">
<svg version="1.0" xmlns="http://www.w3.org/2000/svg"
 width="28.000000pt" height="29.000000pt" viewBox="0 0 428.000000 429.000000"
 preserveAspectRatio="xMidYMid meet">
<metadata>
Created by potrace 1.15, written by Peter Selinger 2001-2017
</metadata>
<g transform="translate(0.000000,429.000000) scale(0.100000,-0.100000)"
fill="#000000" stroke="none">
<path d="M0 2145 l0 -2145 2140 0 2140 0 0 2145 0 2145 -2140 0 -2140 0 0
-2145z m3208 -1072 l-1063 -1063 -1062 1062 -1063 1063 1062 1062 1063 1063
1062 -1062 1063 -1063 -1062 -1062z"/>
<path d="M1167 3112 l-977 -977 978 -978 977 -977 978 978 977 977 -978 978
-977 977 -978 -978z m614 -119 c69 -36 99 -79 99 -145 0 -27 -7 -62 -15 -79
-19 -35 -85 -85 -125 -94 l-29 -6 78 -92 c86 -100 174 -187 191 -187 5 0 10
-7 10 -15 0 -12 -14 -15 -66 -15 -91 0 -116 18 -230 161 -98 123 -116 139
-158 139 l-26 0 0 -114 c0 -128 5 -140 65 -152 20 -3 35 -12 35 -20 0 -11 -30
-14 -160 -14 -131 0 -160 3 -160 14 0 9 15 17 40 21 24 4 44 14 50 25 6 11 10
124 10 270 0 146 -4 259 -10 270 -6 11 -26 21 -50 25 -25 4 -40 12 -40 21 0
12 37 14 218 14 l218 0 55 -27z m1003 -179 c25 -25 19 -61 -16 -98 -18 -19
-302 -293 -630 -610 -557 -537 -600 -576 -632 -576 -40 0 -61 27 -52 65 5 19
931 925 1208 1183 60 55 94 65 122 36z m134 -863 c123 -67 177 -165 170 -311
-3 -70 -9 -94 -33 -138 -35 -65 -81 -106 -155 -141 -54 -25 -60 -26 -297 -29
-200 -3 -243 -1 -243 10 0 8 20 19 45 26 l45 12 0 280 0 280 -45 11 c-27 7
-45 17 -45 26 0 12 37 14 248 11 l247 -3 63 -34z"/>
<path d="M1394 2968 c14 -19 16 -63 16 -281 0 -165 -4 -266 -11 -278 -10 -19
-9 -19 10 -9 11 6 23 21 27 34 3 13 4 137 2 276 -3 235 -4 253 -22 266 -29 21
-39 17 -22 -8z"/>
<path d="M1550 2983 c-34 -12 -40 -36 -40 -166 l0 -130 68 5 c126 9 172 50
172 151 0 93 -55 146 -150 146 -19 0 -42 -3 -50 -6z"/>
<path d="M2610 1948 l-25 -14 -3 -270 c-3 -319 -10 -299 107 -298 115 1 196
49 239 143 22 47 26 70 26 146 0 75 -5 100 -26 145 -30 66 -69 107 -125 132
-56 25 -160 33 -193 16z"/>
<path d="M2468 1669 c2 -201 -1 -285 -9 -295 -16 -20 5 -18 25 2 14 13 16 53
16 283 0 256 -4 291 -29 291 -4 0 -5 -126 -3 -281z"/>
<path d="M2890 1892 c59 -61 80 -125 80 -242 0 -125 -29 -194 -108 -254 -30
-23 -33 -27 -12 -21 44 13 90 55 117 108 22 43 28 69 31 149 6 144 -31 239
-112 289 -47 29 -47 23 4 -29z"/>
</g>
</svg>
